<?xml version="1.0" standalone="no"?>
<!DOCTYPE svg PUBLIC "-//W3C//DTD SVG 20010904//EN"
 "http://www.w3.org/TR/2001/REC-SVG-20010904/DTD/svg10.dtd">
<svg version="1.0" xmlns="http://www.w3.org/2000/svg"
 width="400.000000pt" height="400.000000pt" viewBox="0 0 400.000000 400.000000"
 preserveAspectRatio="xMidYMid meet">

<g transform="translate(0.000000,400.000000) scale(0.100000,-0.100000)"
fill="#000000" stroke="none">
<path d="M1234 3972 c-221 -122 -410 -324 -519 -555 -68 -144 -89 -230 -89
-372 0 -99 5 -140 28 -235 69 -279 152 -514 248 -701 52 -102 88 -161 88 -146
0 4 14 71 30 150 17 78 39 214 50 303 19 154 40 246 96 417 24 71 28 78 48 73
11 -3 64 -13 116 -22 332 -56 1013 85 1360 281 34 19 64 35 66 35 2 0 4 -37 4
-82 0 -81 11 -138 69 -383 16 -66 28 -121 27 -122 -1 -1 -32 3 -70 9 -81 13
-224 0 -415 -38 -130 -26 -159 -40 -147 -69 8 -21 56 -16 210 20 152 37 270
55 352 55 72 0 74 -1 80 -27 34 -150 175 -543 195 -543 26 0 224 582 274 805
64 286 57 473 -23 630 -29 59 -151 184 -206 212 l-38 20 73 72 74 72 -65 -30
c-36 -16 -76 -32 -90 -36 l-24 -8 19 29 c10 16 29 45 41 64 13 19 30 52 39 73
14 35 11 33 -56 -35 l-71 -73 -16 25 c-9 14 -46 55 -82 93 l-67 67 -779 0
-779 0 -51 -28z"/>
<path d="M1191 2619 c-79 -15 -72 -29 16 -29 88 0 204 -18 359 -55 154 -36
202 -41 210 -20 11 28 -16 42 -126 65 -218 45 -366 57 -459 39z"/>
<path d="M1372 2459 c-61 -10 -146 -45 -163 -65 -15 -19 -9 -18 47 6 26 11 74
23 107 27 l59 6 -25 -27 c-47 -51 -47 -123 1 -171 l26 -27 -39 7 c-69 13 -128
48 -152 91 -19 33 -23 36 -23 16 0 -38 35 -77 92 -103 47 -21 67 -24 173 -23
66 0 138 6 160 12 37 10 35 10 -24 5 l-64 -6 22 22 c45 45 52 96 21 154 l-20
37 37 -15 c21 -8 62 -40 91 -70 59 -63 69 -54 17 17 -64 88 -205 132 -343 107z
m202 -68 c25 -28 17 -66 -14 -66 -33 0 -60 46 -41 69 18 21 34 20 55 -3z
m-150 -131 c-14 -14 -39 14 -29 31 5 8 12 6 23 -5 11 -11 13 -19 6 -26z"/>
<path d="M2445 2457 c-85 -23 -136 -57 -179 -121 -39 -58 -31 -65 14 -13 41
47 87 79 128 92 l23 7 -21 -39 c-31 -58 -24 -109 22 -153 l23 -23 -70 6 c-62
5 -65 4 -30 -5 61 -16 252 -15 308 1 63 18 117 68 117 107 l-1 29 -13 -31
c-22 -50 -66 -78 -158 -98 l-27 -6 24 26 c45 48 44 120 -2 170 l-25 27 58 -7
c31 -4 78 -16 102 -26 55 -25 67 -19 21 10 -78 48 -225 70 -314 47z m159 -66
c25 -28 17 -66 -14 -66 -33 0 -60 46 -41 69 18 21 34 20 55 -3z m-150 -131
c-14 -14 -38 5 -30 26 6 16 8 16 23 1 11 -11 14 -20 7 -27z"/>
<path d="M1833 1329 c97 -3 257 -3 355 0 144 6 110 7 -178 7 -288 0 -322 -1
-177 -7z"/>
<path d="M2529 803 c-27 -7 -28 -48 -8 -191 l19 -133 -27 -52 c-52 -104 -129
-205 -241 -315 l-114 -112 911 0 c545 0 911 4 911 9 0 5 -23 44 -51 86 -57 84
-146 165 -238 214 -80 42 -247 96 -362 116 l-97 17 -5 39 c-11 86 -53 115
-188 129 -108 11 -148 29 -233 107 -84 76 -121 93 -198 92 -35 -1 -70 -3 -79
-6z"/>
<path d="M1339 791 c-39 -12 -68 -29 -154 -92 -106 -77 -173 -105 -263 -113
-108 -9 -158 -41 -168 -108 -7 -43 0 -39 -147 -68 -192 -37 -299 -87 -415
-195 -58 -53 -118 -130 -151 -192 l-12 -23 904 0 904 0 -107 108 c-110 110
-162 179 -228 301 l-38 70 13 103 c7 57 12 126 13 154 0 45 -3 52 -22 58 -31
8 -97 6 -129 -3z"/>
</g>
</svg>
